<svg xmlns="http://www.w3.org/2000/svg" viewBox="0 0 512 512"><rect width="512" height="512" rx="110" fill="#020c10"/><circle cx="256" cy="256" r="164" fill="none" stroke="#1e7078" stroke-width="8"/><path d="M87 344h337l-57 76H157z" fill="#081114" stroke="#dfb74c" stroke-width="10"/><path d="M129 370h247" stroke="#dfb74c" stroke-width="7"/><g stroke="#dfb74c" stroke-width="8"><path d="M190 344V139M266 344V105M342 344V151"/><path d="M135 214h110M205 181h122M291 225h102"/></g><g fill="#eae5ca" stroke="#dfb74c" stroke-width="5"><path d="M190 145l-63 69h63z"/><path d="M190 223l-74 95h74z"/><path d="M266 112l-66 69h66z"/><path d="M266 190l-76 126h76z"/><path d="M342 157l-55 68h55z"/><path d="M342 234l-68 84h68z"/></g><g fill="#dfb74c"><circle cx="180" cy="385" r="7"/><circle cx="218" cy="385" r="7"/><circle cx="256" cy="385" r="7"/><circle cx="294" cy="385" r="7"/><circle cx="332" cy="385" r="7"/></g><g fill="none" stroke="#2ebec7" stroke-width="7"><path d="M360 165l86-72M367 221l98-42M371 281l103 10"/><path d="M398 125l43-28 10 47zM411 202l47-26-3 49zM413 268l56 19-42 30z"/></g><path d="M77 445c51-34 93 32 145 0s98 33 151 0 88 22 111 0" fill="none" stroke="#2ebec7" stroke-width="10" stroke-linecap="round"/></svg>